<svg width="36" height="36" viewBox="0 0 36 36" fill="none" xmlns="http://www.w3.org/2000/svg">
<mask id="mask0" mask-type="alpha" maskUnits="userSpaceOnUse" x="0" y="0" width="36" height="36">
<circle cx="18" cy="18" r="18" fill="#75869A"/>
</mask>
<g mask="url(#mask0)">
<circle cx="18" cy="18" r="18" fill="#D6DBE1"/>
<path fill-rule="evenodd" clip-rule="evenodd" d="M18.0001 21C21.8661 21 25.0001 17.866 25.0001 14C25.0001 10.134 21.8661 7 18.0001 7C14.1341 7 11.0001 10.134 11.0001 14C11.0001 17.866 14.1341 21 18.0001 21ZM7.2378 26.0245C6.62798 26.9067 6.84342 28.084 7.61738 28.8264C10.3123 31.4114 13.9704 33 17.9996 33C22.0291 33 25.6875 31.4111 28.3825 28.8257C29.1565 28.0832 29.3718 26.9058 28.7618 26.0236C27.4987 24.1968 25.3892 23 23.0001 23H13.0001C10.6107 23 8.50087 24.1972 7.2378 26.0245Z" fill="#ACB6C2"/>
</g>
</svg>
