<svg width="177" height="30" viewBox="0 0 177 30" fill="none" xmlns="http://www.w3.org/2000/svg">
<path d="M66.1369 9.5625H60.7128V23.7188H55.4789V9.5625H50.0547V5.0625H66.1369V9.5625Z" fill="#0E1121"/>
<path d="M68.3257 23.7188V5.0625H76.9854C77.937 5.0625 78.7934 5.25 79.5547 5.625C80.316 6 80.9821 6.46875 81.5531 7.125C82.1241 7.6875 82.5047 8.4375 82.8854 9.1875C83.1708 9.9375 83.3612 10.7812 83.3612 11.5312C83.3612 12.6562 83.0757 13.5938 82.5999 14.5312C82.1241 15.4688 81.4579 16.2188 80.6015 16.875L84.5983 23.7188H78.6983L75.3676 18H73.4644V23.7188H68.3257ZM73.5596 13.5H76.795C77.0805 13.5 77.366 13.3125 77.6515 12.9375C77.937 12.5625 78.0321 12.0937 78.0321 11.4375C78.0321 10.7812 77.8418 10.3125 77.5563 9.9375C77.2708 9.5625 76.8902 9.46875 76.6047 9.46875H73.4644V13.5H73.5596Z" fill="#0E1121"/>
<path d="M94.6851 19.3125C95.2561 19.3125 95.8271 19.2188 96.2077 18.9375C96.5883 18.6563 96.969 18.375 97.2545 17.9063C97.54 17.4375 97.7303 16.9688 97.8254 16.4062C97.9206 15.8438 98.0158 15.2813 98.0158 14.625V5.0625H103.25V14.625C103.25 15.9375 103.059 17.1562 102.774 18.2812C102.393 19.4062 101.917 20.3438 101.156 21.1875C100.49 22.0312 99.5383 22.6875 98.4916 23.1563C97.4448 23.625 96.1125 23.9062 94.6851 23.9062C93.1625 23.9062 91.9254 23.625 90.7835 23.1563C89.7367 22.6875 88.7851 22.0312 88.119 21.1875C87.4529 20.3438 86.8819 19.4062 86.5964 18.2812C86.3109 17.1562 86.1206 16.0312 86.1206 14.7187V5.0625H91.3545V14.625C91.3545 15.2813 91.4496 15.8438 91.5448 16.4062C91.64 16.9688 91.8303 17.4375 92.1158 17.9063C92.4013 18.375 92.6867 18.6563 93.1625 18.9375C93.5432 19.2188 94.1142 19.3125 94.6851 19.3125Z" fill="#0E1121"/>
<path d="M105.438 14.25C105.438 13.125 105.629 12 106.105 10.875C106.58 9.75 107.151 8.8125 108.008 7.875C108.864 7.03125 109.816 6.28125 111.053 5.71875C112.29 5.15625 113.622 4.875 115.145 4.875C116.953 4.875 118.571 5.25 119.903 6C121.235 6.75 122.282 7.6875 122.948 8.90625L118.951 11.7187C118.761 11.25 118.571 10.875 118.285 10.5938C118 10.3125 117.714 10.0312 117.334 9.84375C116.953 9.65625 116.572 9.5625 116.192 9.46875C115.811 9.375 115.43 9.375 115.05 9.375C114.288 9.375 113.622 9.5625 113.147 9.84375C112.576 10.125 112.195 10.5 111.814 10.9687C111.434 11.4375 111.243 12 111.053 12.5625C110.863 13.125 110.768 13.6875 110.768 14.3438C110.768 15 110.863 15.6562 111.053 16.2187C111.243 16.7812 111.529 17.3437 111.909 17.8125C112.29 18.2812 112.766 18.6562 113.242 18.9375C113.813 19.2188 114.384 19.3125 115.05 19.3125C115.43 19.3125 115.811 19.3125 116.097 19.2187C116.477 19.125 116.858 19.0312 117.143 18.8438C117.524 18.6562 117.809 18.4687 118.095 18.0937C118.38 17.7187 118.571 17.4375 118.761 17.0625L123.043 19.5937C122.758 20.25 122.282 20.9062 121.711 21.4688C121.14 22.0312 120.474 22.5 119.713 22.875C118.951 23.25 118.19 23.5312 117.334 23.7187C116.477 23.9062 115.621 24 114.859 24C113.432 24 112.195 23.7187 111.053 23.1562C109.911 22.5937 108.864 21.8438 108.008 21C107.151 20.1562 106.485 19.0312 106.009 17.9062C105.629 16.5938 105.438 15.4687 105.438 14.25Z" fill="#0E1121"/>
<path d="M125.137 23.7188V5.0625H130.371V12.1875L136.08 5.0625H141.98L135.129 13.4062L142.456 23.7188H136.461L131.798 16.875L130.371 18.375V23.7188H125.137Z" fill="#0E1121"/>
<path d="M157.301 19.2188V23.7188H143.789V5.0625H157.016V9.5625H148.927V12.1875H155.779V16.3125H148.927V19.2188H157.301Z" fill="#0E1121"/>
<path d="M159.966 23.7188V5.0625H168.625C169.577 5.0625 170.434 5.25 171.195 5.625C171.956 6 172.622 6.46875 173.193 7.125C173.764 7.6875 174.24 8.4375 174.525 9.1875C174.811 9.9375 175.001 10.7812 175.001 11.5312C175.001 12.6562 174.716 13.5938 174.24 14.5312C173.764 15.4688 173.098 16.2188 172.242 16.875L176.238 23.7188H170.338L167.008 18H165.105V23.7188H159.966ZM165.2 13.5H168.435C168.721 13.5 169.006 13.3125 169.292 12.9375C169.577 12.5625 169.672 12.0937 169.672 11.4375C169.672 10.7812 169.482 10.3125 169.196 9.9375C168.911 9.5625 168.53 9.46875 168.245 9.46875H165.105V13.5H165.2Z" fill="#0E1121"/>
<path d="M46.2485 28.0312L36.1614 12.1875C35.9711 11.9062 35.6856 11.7188 35.4002 11.7188C35.1147 11.7188 34.734 11.9062 34.6389 12.1875L30.8324 18.1875L19.6985 0.9375C19.5082 0.65625 19.2227 0.46875 18.9373 0.46875C18.6518 0.46875 18.2711 0.65625 18.0808 0.9375L0.856609 28.0312C0.666287 28.3125 0.666287 28.6875 0.856609 28.9688C1.04693 29.25 1.33242 29.4375 1.71306 29.4375H25.3131H36.1614H45.3921C45.7727 29.4375 46.0582 29.25 46.2485 28.9688C46.4389 28.6875 46.4389 28.3125 46.2485 28.0312ZM18.4614 10.875C18.5566 10.7812 18.6518 10.6875 18.8421 10.6875C19.0324 10.6875 19.1276 10.7812 19.2227 10.875L27.026 23.1562C27.1211 23.25 27.1211 23.3438 27.1211 23.4375C27.1211 23.7188 26.9308 23.9062 26.6453 23.9062H11.0389C10.7534 23.9062 10.5631 23.7188 10.5631 23.4375C10.5631 23.3438 10.5631 23.25 10.6582 23.1562L18.4614 10.875Z" fill="#18B15E"/>
</svg>
