<svg width="144" height="24" viewBox="0 0 144 24" fill="none" xmlns="http://www.w3.org/2000/svg">
<path d="M53.8065 7.65H49.3936V18.975H45.1355V7.65H40.7226V4.05H53.8065V7.65Z" fill="#0E1121"/>
<path d="M55.5871 18.975V4.05H62.6323C63.4065 4.05 64.1032 4.2 64.7226 4.5C65.3419 4.8 65.8839 5.175 66.3484 5.7C66.8129 6.15 67.1226 6.75 67.4323 7.35C67.6645 7.95 67.8194 8.625 67.8194 9.225C67.8194 10.125 67.5871 10.875 67.2 11.625C66.8129 12.375 66.271 12.975 65.5742 13.5L68.8258 18.975H64.0258L61.3161 14.4H59.7678V18.975H55.5871ZM59.8452 10.8H62.4774C62.7097 10.8 62.9419 10.65 63.1742 10.35C63.4065 10.05 63.4839 9.675 63.4839 9.15C63.4839 8.625 63.329 8.25 63.0968 7.95C62.8645 7.65 62.5548 7.575 62.3226 7.575H59.7678V10.8H59.8452Z" fill="#0E1121"/>
<path d="M77.0323 15.45C77.4968 15.45 77.9614 15.375 78.271 15.15C78.5807 14.925 78.8904 14.7 79.1226 14.325C79.3549 13.95 79.5097 13.575 79.5872 13.125C79.6646 12.675 79.742 12.225 79.742 11.7V4.05H84.0001V11.7C84.0001 12.75 83.8452 13.725 83.613 14.625C83.3033 15.525 82.9162 16.275 82.2968 16.95C81.7549 17.625 80.9807 18.15 80.1291 18.525C79.2775 18.9 78.1936 19.125 77.0323 19.125C75.7936 19.125 74.7872 18.9 73.8581 18.525C73.0065 18.15 72.2323 17.625 71.6904 16.95C71.1485 16.275 70.6839 15.525 70.4517 14.625C70.2194 13.725 70.0646 12.825 70.0646 11.775V4.05H74.3227V11.7C74.3227 12.225 74.4001 12.675 74.4775 13.125C74.5549 13.575 74.7097 13.95 74.942 14.325C75.1743 14.7 75.4065 14.925 75.7936 15.15C76.1033 15.375 76.5678 15.45 77.0323 15.45Z" fill="#0E1121"/>
<path d="M85.7807 11.4C85.7807 10.5 85.9355 9.6 86.3226 8.7C86.7097 7.8 87.1742 7.05 87.871 6.3C88.5678 5.625 89.342 5.025 90.3484 4.575C91.3549 4.125 92.4387 3.9 93.6775 3.9C95.1484 3.9 96.4646 4.2 97.5484 4.8C98.6323 5.4 99.4839 6.15 100.026 7.125L96.7742 9.375C96.6194 9 96.4646 8.7 96.2323 8.475C96 8.25 95.7678 8.025 95.4581 7.875C95.1484 7.725 94.8387 7.65 94.5291 7.575C94.2194 7.5 93.9097 7.5 93.6 7.5C92.9807 7.5 92.4387 7.65 92.0516 7.875C91.5871 8.1 91.2775 8.4 90.9678 8.775C90.6581 9.15 90.5033 9.6 90.3484 10.05C90.1936 10.5 90.1162 10.95 90.1162 11.475C90.1162 12 90.1936 12.525 90.3484 12.975C90.5033 13.425 90.7355 13.875 91.0452 14.25C91.3549 14.625 91.742 14.925 92.1291 15.15C92.5936 15.375 93.0581 15.45 93.6 15.45C93.9097 15.45 94.2194 15.45 94.4516 15.375C94.7613 15.3 95.071 15.225 95.3033 15.075C95.6129 14.925 95.8452 14.775 96.0775 14.475C96.3097 14.175 96.4646 13.95 96.6194 13.65L100.103 15.675C99.871 16.2 99.4839 16.725 99.0194 17.175C98.5549 17.625 98.0129 18 97.3936 18.3C96.7742 18.6 96.1549 18.825 95.4581 18.975C94.7613 19.125 94.0645 19.2 93.4452 19.2C92.2839 19.2 91.2774 18.975 90.3484 18.525C89.4194 18.075 88.5678 17.475 87.871 16.8C87.1742 16.125 86.6323 15.225 86.2452 14.325C85.9355 13.275 85.7807 12.375 85.7807 11.4Z" fill="#0E1121"/>
<path d="M101.807 18.975V4.05H106.065V9.75L110.71 4.05H115.51L109.936 10.725L115.897 18.975H111.019L107.226 13.5L106.065 14.7V18.975H101.807Z" fill="#0E1121"/>
<path d="M127.974 15.375V18.975H116.981V4.05H127.742V7.65H121.161V9.75H126.736V13.05H121.161V15.375H127.974Z" fill="#0E1121"/>
<path d="M130.142 18.975V4.05H137.187C137.961 4.05 138.658 4.2 139.277 4.5C139.897 4.8 140.439 5.175 140.903 5.7C141.368 6.15 141.755 6.75 141.987 7.35C142.219 7.95 142.374 8.625 142.374 9.225C142.374 10.125 142.142 10.875 141.755 11.625C141.368 12.375 140.826 12.975 140.129 13.5L143.381 18.975H138.581L135.871 14.4H134.323V18.975H130.142ZM134.4 10.8H137.032C137.265 10.8 137.497 10.65 137.729 10.35C137.961 10.05 138.039 9.675 138.039 9.15C138.039 8.625 137.884 8.25 137.652 7.95C137.419 7.65 137.11 7.575 136.877 7.575H134.323V10.8H134.4Z" fill="#0E1121"/>
<path d="M37.6258 22.425L29.4193 9.75C29.2645 9.525 29.0322 9.375 28.8 9.375C28.5677 9.375 28.258 9.525 28.1806 9.75L25.0838 14.55L16.0258 0.75C15.8709 0.525 15.6387 0.375 15.4064 0.375C15.1742 0.375 14.8645 0.525 14.7096 0.75L0.696741 22.425C0.541903 22.65 0.541903 22.95 0.696741 23.175C0.85158 23.4 1.08384 23.55 1.39352 23.55H20.5935H29.4193H36.929C37.2387 23.55 37.4709 23.4 37.6258 23.175C37.7806 22.95 37.7806 22.65 37.6258 22.425ZM15.0193 8.7C15.0967 8.625 15.1742 8.55 15.329 8.55C15.4838 8.55 15.5613 8.625 15.6387 8.7L21.9871 18.525C22.0645 18.6 22.0645 18.675 22.0645 18.75C22.0645 18.975 21.9096 19.125 21.6774 19.125H8.98061C8.74835 19.125 8.59352 18.975 8.59352 18.75C8.59352 18.675 8.59352 18.6 8.67093 18.525L15.0193 8.7Z" fill="#18B15E"/>
</svg>
