<svg width="18" height="18" viewBox="0 0 18 18" fill="none" xmlns="http://www.w3.org/2000/svg">
<path fill-rule="evenodd" clip-rule="evenodd" d="M11.3073 0.228429C11.766 -0.000925712 12.3101 0.0199714 12.7499 0.28383L17.2717 2.99696C17.7236 3.26805 18 3.75631 18 4.2832V16.117C18 17.283 16.728 18.0031 15.7283 17.4033L11.9562 15.14L6.69271 17.7718C6.234 18.0011 5.68991 17.9802 5.25015 17.7164L0.728257 15.0033C0.276449 14.7322 0 14.2439 0 13.717V1.8832C0 0.717257 1.27196 -0.00290697 2.27174 0.596964L6.04378 2.86018L11.3073 0.228429ZM11 2.61814L7 4.61814V15.3821L11 13.3821V2.61814ZM13 2.7663V13.4339L16 15.2339V4.5663L13 2.7663ZM2 2.7663L5 4.5663V15.2339L2 13.4339V2.7663Z" fill="#18B15E"/>
</svg>
