<svg width="18" height="18" viewBox="0 0 18 18" fill="none" xmlns="http://www.w3.org/2000/svg">
<path fill-rule="evenodd" clip-rule="evenodd" d="M0 1C0 0.447715 0.447715 0 1 0H17C17.5523 0 18 0.447715 18 1V3C18 3.55228 17.5523 4 17 4H1C0.447716 4 0 3.55228 0 3V1ZM0 8C0 7.44772 0.447715 7 1 7H11C11.5523 7 12 7.44772 12 8V10C12 10.5523 11.5523 11 11 11H1C0.447715 11 0 10.5523 0 10V8ZM1 14C0.447715 14 0 14.4477 0 15V17C0 17.5523 0.447716 18 1 18H17C17.5523 18 18 17.5523 18 17V15C18 14.4477 17.5523 14 17 14H1Z" fill="#ACB6C2"/>
</svg>
