<svg width="18" height="18" viewBox="0 0 18 18" fill="none" xmlns="http://www.w3.org/2000/svg">
<path fill-rule="evenodd" clip-rule="evenodd" d="M0.792741 3.62132C0.402217 3.23079 0.402216 2.59763 0.79274 2.2071L2.20695 0.792891C2.59748 0.402367 3.23064 0.402367 3.62117 0.792891L8.99988 6.1716L14.3786 0.792891C14.7691 0.402367 15.4023 0.402367 15.7928 0.792891L17.207 2.2071C17.5975 2.59763 17.5975 3.23079 17.207 3.62132L11.8283 9.00003L17.207 14.3787C17.5975 14.7692 17.5975 15.4024 17.207 15.7929L15.7927 17.2071C15.4022 17.5976 14.769 17.5976 14.3785 17.2071L8.99988 11.8285L3.62122 17.2071C3.2307 17.5976 2.59754 17.5976 2.20701 17.2071L0.792798 15.7929C0.402274 15.4024 0.402274 14.7692 0.792798 14.3787L6.17145 9.00003L0.792741 3.62132Z" fill="#ACB6C2"/>
</svg>
