<svg width="24" height="24" viewBox="0 0 24 24" fill="none" xmlns="http://www.w3.org/2000/svg">
  <path fill-rule="evenodd" clip-rule="evenodd" d="M21.0001 10C21.0001 5.6555 17.9218 2.02998 13.8273 1.1856C13.5155 0.48694 12.8147 0 12.0001 0C11.1856 0 10.4848 0.48694 10.1729 1.1856C6.07843 2.02998 3.00012 5.6555 3.00012 10V15.7574C3.00012 16.553 2.68404 17.3161 2.12144 17.8787L1.3658 18.6343C0.861829 19.1383 1.21876 20 1.93149 20H22.0687C22.7815 20 23.1384 19.1383 22.6344 18.6343L21.8788 17.8787C21.3162 17.3161 21.0001 16.553 21.0001 15.7574V10ZM9.50012 21C9.22398 21 9.00012 21.2239 9.00012 21.5V22C9.00012 23.1046 9.89555 24 11.0001 24H13.0001C14.1047 24 15.0001 23.1046 15.0001 22V21.5C15.0001 21.2239 14.7763 21 14.5001 21H9.50012Z" fill="#ACB6C2"/>
</svg>
